<?xml version="1.0" encoding="UTF-8"?>
<svg id="Layer_2" data-name="Layer 2" xmlns="http://www.w3.org/2000/svg" xmlns:xlink="http://www.w3.org/1999/xlink" viewBox="0 0 315.46 380">
  <defs>
    <style>
      .cls-1 {
        fill: url(#linear-gradient-5);
      }

      .cls-2 {
        fill: url(#linear-gradient-4);
      }

      .cls-3 {
        fill: url(#linear-gradient-3);
      }

      .cls-4 {
        fill: url(#linear-gradient-2);
      }

      .cls-5 {
        fill: #658b2c;
      }

      .cls-6 {
        fill: url(#linear-gradient);
      }
    </style>
    <linearGradient id="linear-gradient" x1="75.77" y1="346.48" x2="313.06" y2="139.22" gradientUnits="userSpaceOnUse">
      <stop offset="0" stop-color="#37660d"/>
      <stop offset=".24" stop-color="#436f1b"/>
      <stop offset=".69" stop-color="#638842"/>
      <stop offset="1" stop-color="#7c9c60"/>
    </linearGradient>
    <linearGradient id="linear-gradient-2" x1="5.07" y1="265.55" x2="242.4" y2="58.25" xlink:href="#linear-gradient"/>
    <linearGradient id="linear-gradient-3" x1="99.82" y1="126.66" x2="215.08" y2="232.24" gradientUnits="userSpaceOnUse">
      <stop offset="0" stop-color="#37660d"/>
      <stop offset="1" stop-color="#c9ff30"/>
    </linearGradient>
    <linearGradient id="linear-gradient-4" x1="98.53" y1="359.04" x2="302.64" y2="89.18" xlink:href="#linear-gradient-3"/>
    <linearGradient id="linear-gradient-5" x1="5.4" y1="288.6" x2="209.51" y2="18.74" xlink:href="#linear-gradient-3"/>
  </defs>
  <g id="Layer_1-2" data-name="Layer 1">
    <g>
      <path class="cls-5" d="M273.77,76.94c-20.32-22.85-46.71-39.34-76.15-47.03-10.68-2.36-22.04-3.91-33.79-4.54V8.58c0-4.74-3.84-8.58-8.59-8.58h-9.48c-4.74,0-8.59,3.84-8.59,8.58v17.78c.76-.09,1.55-.15,2.34-.24-37.81,3.93-68.29,18.92-92.17,42.71-3.12,3.12-6.16,6.36-9.07,9.76C13.62,107.52,0,149.17,0,196.79c0,31.96,9.24,61.45,25.12,86.11,24.58,38.21,65.12,64.75,112.04,70.71v17.8c0,4.74,3.84,8.58,8.59,8.58h9.48c4.74,0,8.59-3.84,8.59-8.58v-16.78c5.4-.22,10.62-.59,15.62-1.16.15-.02.33-.04.5-.07.92-.11,1.81-.24,2.71-.37,34.12-5.09,64.18-20.47,87.03-43.84,28.49-29.14,45.77-70.64,45.77-120.08,0-44.21-15.97-83.27-41.68-112.19ZM183.66,269.34c-8.43,3.69-17.85,5.68-28.05,5.68-31.54,0-56.43-19.38-64.9-58.52,17.08,6.18,36.37,9.39,59.38,12.6,23.79,3.39,40.81,13.61,40.81,27.2,0,4.63-2.56,9.24-7.23,13.04ZM162.82,145.77c-22.94-4.24-32.31-13.59-32.31-25.49,0-11.05,13.61-17.02,31.48-17.02,10.49,0,20.27,4.61,29.99,9.63,15.49,10.14,25.45,26.63,30.65,44.89-23.44-9.2-42.31-8.52-59.81-12.01Z"/>
      <path class="cls-6" d="M315.46,189.13c0-44.21-15.97-83.27-41.69-112.2.84,2.54,1.3,5.08,1.3,7.62,0,18.7-17.01,40.81-47.62,40.81-12.47,0-23.93-6.52-35.48-12.48,15.5,10.14,25.47,26.63,30.66,44.89,10.75,4.23,22.46,10.53,35.43,20.29,23.38,17.43,33.16,39.97,33.16,68.02,0,21.43-6.49,44.05-21.54,63.09,28.48-29.13,45.78-70.65,45.78-120.06Z"/>
      <path class="cls-4" d="M70.15,254.6c26.36,0,40.82,23.81,82.48,23.81,13.87,0,24.53-3.76,31.04-9.07-8.43,3.69-17.84,5.67-28.06,5.67-31.54,0-56.43-19.36-64.89-58.5-10.08-3.64-19.38-8.31-28.22-14.62-24.66-17.01-36.56-41.66-36.56-70.57,0-23.9,6.99-44.88,21.42-62.48-3.13,3.12-6.18,6.35-9.08,9.77C13.61,107.51,0,149.17,0,196.79c0,31.96,9.26,61.45,25.12,86.11,4.56-16.87,26.13-28.3,45.02-28.3Z"/>
      <path class="cls-3" d="M87.59,184.89c0,11.69,1.1,22.22,3.13,31.62,17.08,6.17,36.37,9.38,59.36,12.59,23.81,3.4,40.81,13.6,40.81,27.21,0,4.62-2.55,9.22-7.23,13.03,26.67-11.67,43.37-40.59,43.37-79.35,0-10.74-1.43-21.76-4.4-32.2-23.43-9.21-42.32-8.52-59.81-12.02-22.96-4.25-32.31-13.6-32.31-25.5,0-11.05,13.61-17.01,31.46-17.01,10.49,0,20.27,4.62,29.99,9.63-10.02-6.56-22.35-10.48-37.22-10.48-38.26,0-67.17,33.58-67.17,82.47Z"/>
      <path class="cls-2" d="M291.23,246.1c0,21.43-6.49,44.06-21.54,63.11-22.85,23.37-52.91,38.75-87.03,43.84-.9.13-1.79.26-2.71.37-.17.02-.35.04-.5.07-5,.57-10.22.96-15.62,1.16v16.78c0,4.74-3.84,8.58-8.59,8.58h-9.48c-4.74,0-8.59-3.84-8.59-8.58v-17.8c-46.95-5.96-87.47-32.5-112.04-70.71,4.57-16.86,26.13-28.31,45.02-28.31,26.37,0,40.81,23.81,82.47,23.81,13.87,0,24.53-3.76,31.04-9.07,26.67-11.66,43.36-40.59,43.36-79.36,0-10.73-1.42-21.76-4.39-32.2,10.75,4.24,22.46,10.55,35.43,20.29,23.37,17.43,33.16,39.97,33.16,68.02Z"/>
      <path class="cls-1" d="M275.06,84.56c0,18.7-17,40.8-47.6,40.8-12.47,0-23.94-6.51-35.48-12.47-10.03-6.55-22.35-10.49-37.22-10.49-38.27,0-67.17,33.6-67.17,82.48,0,11.69,1.09,22.22,3.12,31.61-10.07-3.63-19.38-8.3-28.2-14.61-24.66-16.99-36.57-41.66-36.57-70.56,0-23.9,6.99-44.89,21.41-62.5,23.37-23.29,53.08-38.18,89.83-42.47V8.58c0-4.74,3.84-8.58,8.59-8.58h9.48c4.74,0,8.59,3.84,8.59,8.58v16.78c11.75.61,23.11,2.18,33.79,4.54,29.45,7.69,55.84,24.18,76.15,47.03.83,2.53,1.29,5.09,1.29,7.62Z"/>
    </g>
  </g>
</svg>